HIERARCHY
ROOT Hips
{
	OFFSET 0.000000 100.481300 0.000000
	CHANNELS 6 Xposition Yposition Zposition Xrotation Yrotation Zrotation
	JOINT Spine
	{
		OFFSET -0.279200 12.230698 -2.892100
		CHANNELS 3 Xrotation Yrotation Zrotation
		JOINT Spine1
		{
			OFFSET -0.325700 14.269203 -3.374200
			CHANNELS 3 Xrotation Yrotation Zrotation
			JOINT Spine2
			{
				OFFSET -0.372300 16.307602 -0.352600
				CHANNELS 3 Xrotation Yrotation Zrotation
				JOINT Neck
				{
					OFFSET -0.418800 17.814194 8.416900
					CHANNELS 3 Xrotation Yrotation Zrotation
					JOINT Head
					{
						OFFSET 0.000000 7.031097 3.806800
						CHANNELS 3 Xrotation Yrotation Zrotation
						JOINT HeadTop_End
						{
							OFFSET 0.000000 24.646606 12.978600
							CHANNELS 3 Xrotation Yrotation Zrotation
							End Site
							{
								OFFSET 0.000000 27.854965 0.000000
							}
						}
					}
				}
				JOINT LeftShoulder
				{
					OFFSET 16.952999 14.495407 -7.737500
					CHANNELS 3 Xrotation Yrotation Zrotation
					JOINT LeftArm
					{
						OFFSET 9.308998 -2.777710 0.208600
						CHANNELS 3 Xrotation Yrotation Zrotation
						JOINT LeftForeArm
						{
							OFFSET 29.972298 0.000000 0.000000
							CHANNELS 3 Xrotation Yrotation Zrotation
							JOINT LeftHand
							{
								OFFSET 26.026505 0.000000 0.000000
								CHANNELS 3 Xrotation Yrotation Zrotation
								JOINT LeftHandThumb1
								{
									OFFSET 12.240501 -7.147949 9.207150
									CHANNELS 3 Xrotation Yrotation Zrotation
									JOINT LeftHandThumb2
									{
										OFFSET 4.138618 -2.389435 2.389433
										CHANNELS 3 Xrotation Yrotation Zrotation
										JOINT LeftHandThumb3
										{
											OFFSET 2.726913 -1.574387 1.574386
											CHANNELS 3 Xrotation Yrotation Zrotation
											JOINT LeftHandThumb4
											{
												OFFSET 3.941010 -2.275345 2.275342
												CHANNELS 3 Xrotation Yrotation Zrotation
												End Site
												{
													OFFSET -0.005798 5.087799 0.009903
												}
											}
										}
									}
								}
								JOINT LeftHandIndex1
								{
									OFFSET 24.424698 -1.985611 5.953459
									CHANNELS 3 Xrotation Yrotation Zrotation
									JOINT LeftHandIndex2
									{
										OFFSET 6.426697 0.000000 0.000000
										CHANNELS 3 Xrotation Yrotation Zrotation
										JOINT LeftHandIndex3
										{
											OFFSET 5.337898 0.000000 0.000000
											CHANNELS 3 Xrotation Yrotation Zrotation
											JOINT LeftHandIndex4
											{
												OFFSET 4.409401 0.000000 0.000000
												CHANNELS 3 Xrotation Yrotation Zrotation
												End Site
												{
													OFFSET 0.000000 4.409363 0.014373
												}
											}
										}
									}
								}
								JOINT LeftHandMiddle1
								{
									OFFSET 23.810104 0.000000 0.000000
									CHANNELS 3 Xrotation Yrotation Zrotation
									JOINT LeftHandMiddle2
									{
										OFFSET 7.176498 0.000000 0.000000
										CHANNELS 3 Xrotation Yrotation Zrotation
										JOINT LeftHandMiddle3
										{
											OFFSET 6.774902 0.000000 0.000000
											CHANNELS 3 Xrotation Yrotation Zrotation
											JOINT LeftHandMiddle4
											{
												OFFSET 5.403328 0.000000 0.000000
												CHANNELS 3 Xrotation Yrotation Zrotation
												End Site
												{
													OFFSET -0.027702 5.403244 0.017414
												}
											}
										}
									}
								}
								JOINT LeftHandRing1
								{
									OFFSET 22.908401 -0.839279 -6.020567
									CHANNELS 3 Xrotation Yrotation Zrotation
									JOINT LeftHandRing2
									{
										OFFSET 6.337502 0.000000 0.000000
										CHANNELS 3 Xrotation Yrotation Zrotation
										JOINT LeftHandRing3
										{
											OFFSET 5.779297 0.000000 0.000000
											CHANNELS 3 Xrotation Yrotation Zrotation
											JOINT LeftHandRing4
											{
												OFFSET 4.965698 0.000000 0.000000
												CHANNELS 3 Xrotation Yrotation Zrotation
												End Site
												{
													OFFSET 0.000000 4.965668 0.016186
												}
											}
										}
									}
								}
								JOINT LeftHandPinky1
								{
									OFFSET 20.037003 -1.530319 -10.950146
									CHANNELS 3 Xrotation Yrotation Zrotation
									JOINT LeftHandPinky2
									{
										OFFSET 5.254700 0.000000 0.000000
										CHANNELS 3 Xrotation Yrotation Zrotation
										JOINT LeftHandPinky3
										{
											OFFSET 4.810204 0.000000 0.000000
											CHANNELS 3 Xrotation Yrotation Zrotation
											JOINT LeftHandPinky4
											{
												OFFSET 3.647202 0.000000 0.000000
												CHANNELS 3 Xrotation Yrotation Zrotation
												End Site
												{
													OFFSET 0.000000 3.647186 0.011889
												}
											}
										}
									}
								}
							}
						}
					}
				}
				JOINT RightShoulder
				{
					OFFSET -15.141001 14.495407 -7.737500
					CHANNELS 3 Xrotation Yrotation Zrotation
					JOINT RightArm
					{
						OFFSET -9.308998 -2.777710 0.208500
						CHANNELS 3 Xrotation Yrotation Zrotation
						JOINT RightForeArm
						{
							OFFSET -29.972300 0.000000 0.000000
							CHANNELS 3 Xrotation Yrotation Zrotation
							JOINT RightHand
							{
								OFFSET -26.026505 0.000000 0.000000
								CHANNELS 3 Xrotation Yrotation Zrotation
								JOINT RightHandThumb1
								{
									OFFSET -12.240601 -7.148026 9.207092
									CHANNELS 3 Xrotation Yrotation Zrotation
									JOINT RightHandThumb2
									{
										OFFSET -4.138618 -2.389435 2.389433
										CHANNELS 3 Xrotation Yrotation Zrotation
										JOINT RightHandThumb3
										{
											OFFSET -2.726974 -1.574417 1.574421
											CHANNELS 3 Xrotation Yrotation Zrotation
											JOINT RightHandThumb4
											{
												OFFSET -3.941010 -2.275345 2.275343
												CHANNELS 3 Xrotation Yrotation Zrotation
												End Site
												{
													OFFSET 0.005814 5.087799 0.009927
												}
											}
										}
									}
								}
								JOINT RightHandIndex1
								{
									OFFSET -24.424698 -1.985657 5.953444
									CHANNELS 3 Xrotation Yrotation Zrotation
									JOINT RightHandIndex2
									{
										OFFSET -6.426697 0.000000 0.000000
										CHANNELS 3 Xrotation Yrotation Zrotation
										JOINT RightHandIndex3
										{
											OFFSET -5.337898 0.000000 0.000000
											CHANNELS 3 Xrotation Yrotation Zrotation
											JOINT RightHandIndex4
											{
												OFFSET -4.409401 0.000000 0.000000
												CHANNELS 3 Xrotation Yrotation Zrotation
												End Site
												{
													OFFSET 0.000000 4.409363 0.014408
												}
											}
										}
									}
								}
								JOINT RightHandMiddle1
								{
									OFFSET -23.810097 0.000000 0.000000
									CHANNELS 3 Xrotation Yrotation Zrotation
									JOINT RightHandMiddle2
									{
										OFFSET -7.176498 0.000000 0.000000
										CHANNELS 3 Xrotation Yrotation Zrotation
										JOINT RightHandMiddle3
										{
											OFFSET -6.774902 0.000000 0.000000
											CHANNELS 3 Xrotation Yrotation Zrotation
											JOINT RightHandMiddle4
											{
												OFFSET -5.403328 0.000000 0.000000
												CHANNELS 3 Xrotation Yrotation Zrotation
												End Site
												{
													OFFSET 0.027702 5.403244 0.017457
												}
											}
										}
									}
								}
								JOINT RightHandRing1
								{
									OFFSET -22.908302 -0.839325 -6.020576
									CHANNELS 3 Xrotation Yrotation Zrotation
									JOINT RightHandRing2
									{
										OFFSET -6.337502 0.000000 0.000000
										CHANNELS 3 Xrotation Yrotation Zrotation
										JOINT RightHandRing3
										{
											OFFSET -5.779297 0.000000 0.000000
											CHANNELS 3 Xrotation Yrotation Zrotation
											JOINT RightHandRing4
											{
												OFFSET -4.965698 0.000000 0.000000
												CHANNELS 3 Xrotation Yrotation Zrotation
												End Site
												{
													OFFSET 0.000000 4.965668 0.016226
												}
											}
										}
									}
								}
								JOINT RightHandPinky1
								{
									OFFSET -20.037003 -1.530334 -10.950259
									CHANNELS 3 Xrotation Yrotation Zrotation
									JOINT RightHandPinky2
									{
										OFFSET -5.254700 0.000000 0.000000
										CHANNELS 3 Xrotation Yrotation Zrotation
										JOINT RightHandPinky3
										{
											OFFSET -4.810204 0.000000 0.000000
											CHANNELS 3 Xrotation Yrotation Zrotation
											JOINT RightHandPinky4
											{
												OFFSET -3.647202 0.000000 0.000000
												CHANNELS 3 Xrotation Yrotation Zrotation
												End Site
												{
													OFFSET 0.000000 3.647186 0.011917
												}
											}
										}
									}
								}
							}
						}
					}
				}
			}
		}
	}
	JOINT LeftUpLeg
	{
		OFFSET 15.427100 -6.655098 0.678600
		CHANNELS 3 Xrotation Yrotation Zrotation
		JOINT LeftLeg
		{
			OFFSET 4.081073 -39.591068 13.024000
			CHANNELS 3 Xrotation Yrotation Zrotation
			JOINT LeftFoot
			{
				OFFSET -4.081074 -37.707932 -15.979700
				CHANNELS 3 Xrotation Yrotation Zrotation
				JOINT LeftToeBase
				{
					OFFSET 5.346399 -15.068900 20.645000
					CHANNELS 3 Xrotation Yrotation Zrotation
					JOINT LeftToe_End
					{
						OFFSET 2.754700 0.931300 11.300900
						CHANNELS 3 Xrotation Yrotation Zrotation
						End Site
						{
							OFFSET 0.000000 11.669021 0.000000
						}
					}
				}
			}
		}
	}
	JOINT RightUpLeg
	{
		OFFSET -15.569500 -6.655098 0.678600
		CHANNELS 3 Xrotation Yrotation Zrotation
		JOINT RightLeg
		{
			OFFSET -4.081825 -39.591045 13.023800
			CHANNELS 3 Xrotation Yrotation Zrotation
			JOINT RightFoot
			{
				OFFSET 4.081824 -37.707954 -15.979600
				CHANNELS 3 Xrotation Yrotation Zrotation
				JOINT RightToeBase
				{
					OFFSET -5.346400 -15.068900 20.645000
					CHANNELS 3 Xrotation Yrotation Zrotation
					JOINT RightToe_End
					{
						OFFSET -2.754700 0.931300 11.300900
						CHANNELS 3 Xrotation Yrotation Zrotation
						End Site
						{
							OFFSET 0.000000 11.669021 0.000000
						}
					}
				}
			}
		}
	}
}
MOTION
Frames: 5
Frame Time: 0.033333
0.174039 97.865189 -0.513109 5.178628 -1.302958 -0.843112 4.996889 1.659323 -0.679528 1.911722 0.432655 0.282904 1.907342 0.446967 0.289734 -12.217126 -1.412568 3.312488 -10.344879 0.382559 -4.044167 0.000000 0.000000 0.000000 2.252875 13.818161 -7.037820 -72.824932 43.039433 0.283671 -0.000001 -128.004111 -0.000001 -4.993207 -20.799480 83.535529 48.436461 -55.243776 1.889163 16.609190 45.483182 -7.480848 9.384216 60.569346 22.734611 -0.000004 -0.000000 0.000001 -0.266268 3.547710 -82.078472 4.347674 5.655272 -75.086448 1.096842 3.414537 -35.607972 0.000001 0.000000 -0.000003 2.193780 7.781329 -82.792575 4.867368 5.768059 -80.304768 0.714507 2.805685 -28.569920 -0.000000 0.000001 0.000001 1.249735 7.902752 -86.093496 3.734869 5.456226 -68.762929 0.943602 3.190066 -32.948262 0.000001 -0.000001 0.000000 2.505573 7.898892 -84.418488 1.035477 3.327350 -34.564661 2.885302 5.045993 -59.500530 0.000000 -0.000000 -0.000002 3.039418 -9.952586 13.763375 -83.316294 -37.215276 -9.768922 -0.000005 129.351625 0.000013 -18.460837 10.296183 -92.104049 34.036837 46.601653 8.145972 15.845096 -44.633077 -11.113709 -19.175264 -63.330627 -55.315120 0.000002 -0.000000 -0.000000 1.509301 -2.130689 70.745809 3.679218 -4.553554 77.865215 0.897689 -2.750704 36.142134 0.000000 -0.000000 0.000001 -3.944695 -5.265229 78.352980 3.017347 -4.359511 69.362996 0.966515 -2.842453 37.552704 0.000000 0.000000 -0.000002 -4.974628 -4.036117 71.982394 3.110235 -4.393276 70.579992 0.431515 -1.959606 24.835109 -0.000000 -0.000000 -0.000001 -2.552365 -3.065067 56.530368 1.253164 -3.180229 43.005361 1.565980 -3.485065 48.382215 -0.000001 0.000000 0.000000 -10.040685 11.788063 12.530149 6.949469 4.725454 1.225670 -1.115771 1.467580 -11.679958 0.003494 -0.000004 -0.002526 -0.000000 0.000001 -0.000000 -11.386001 -9.096037 -9.597303 6.509569 -3.527534 -0.555104 -0.729809 -1.056736 10.029889 2.524398 0.000001 0.000001 0.000000 -0.000001 -0.000000 
0.138602 97.559219 -0.732186 5.257187 -1.349582 -0.939598 5.225662 1.855387 -0.698672 2.023380 0.474197 0.267847 2.018628 0.489031 0.276321 -12.566838 -1.490149 3.376382 -10.647116 0.166665 -4.044006 0.000000 -0.000000 -0.000000 2.231001 13.688907 -6.924226 -72.643495 42.944360 0.386662 -0.000010 -127.908406 0.000006 -5.012489 -20.860543 83.782379 48.436481 -55.243779 1.889176 16.609195 45.483186 -7.480844 9.384210 60.569353 22.734607 0.000001 0.000001 0.000000 -0.266260 3.547715 -82.078472 4.347673 5.655271 -75.086448 1.096842 3.414538 -35.607969 0.000000 -0.000001 -0.000002 2.193772 7.781357 -82.792575 4.867378 5.768080 -80.304740 0.714510 2.805674 -28.569916 -0.000000 -0.000000 0.000001 1.249739 7.902758 -86.093496 3.734844 5.456198 -68.762902 0.943610 3.190105 -32.948259 0.000001 -0.000001 -0.000001 2.505581 7.898898 -84.418481 1.035505 3.327357 -34.564667 2.885304 5.045966 -59.500524 -0.000000 -0.000000 0.000000 3.065560 -10.295874 13.745600 -83.262082 -37.514175 -9.350881 0.000009 129.464515 -0.000014 -18.368715 10.280034 -91.845281 34.181753 46.483242 7.822683 15.845098 -44.633073 -11.113700 -19.175263 -63.330627 -55.315117 0.000001 -0.000005 -0.000002 1.410272 -2.110434 70.494533 3.679218 -4.553554 77.865208 0.897688 -2.750703 36.142134 -0.000002 -0.000000 0.000001 -4.054157 -5.207592 78.106123 3.017209 -4.359471 69.361029 0.966515 -2.842453 37.552704 0.000000 0.000000 -0.000000 -5.073639 -3.964213 71.738939 3.109937 -4.393176 70.576140 0.431514 -1.959606 24.835111 0.000000 -0.000000 0.000000 -2.655356 -3.027079 56.280974 1.253165 -3.180229 43.005361 1.565980 -3.485064 48.382215 -0.000001 0.000000 -0.000000 -10.854310 11.628164 12.831314 8.070273 4.723928 1.219433 -1.506701 1.500527 -11.757065 -0.024640 -0.000002 0.000003 0.000000 0.000001 0.000000 -12.097529 -9.042095 -9.637650 7.444097 -3.427331 -0.370123 -1.026484 -1.074144 9.897646 2.495302 0.000001 0.000000 -0.000000 -0.000001 0.000000 
0.158407 97.144798 -0.981355 5.473646 -1.508097 -1.086505 5.381673 2.073941 -0.602708 2.108992 0.518755 0.274706 2.103907 0.533398 0.284913 -12.951172 -1.544174 3.482322 -10.984345 0.148641 -4.047842 -0.000001 -0.000000 -0.000000 2.226767 13.727809 -6.892288 -72.326246 42.931861 0.421365 -0.000012 -127.848423 0.000010 -5.043490 -20.971503 84.127679 48.436471 -55.243769 1.889143 16.609193 45.483182 -7.480843 9.384201 60.569353 22.734613 0.000001 0.000001 -0.000001 -0.266254 3.547725 -82.078458 4.347673 5.655273 -75.086448 1.096842 3.414537 -35.607969 -0.000001 -0.000000 0.000001 2.193788 7.781349 -82.792582 4.867360 5.768069 -80.304740 0.714514 2.805692 -28.569909 -0.000000 -0.000000 -0.000003 1.249750 7.902763 -86.093503 3.734858 5.456200 -68.762929 0.943605 3.190093 -32.948262 0.000000 0.000000 -0.000002 2.505573 7.898899 -84.418468 1.035493 3.327373 -34.564685 2.885308 5.045994 -59.500524 0.000000 -0.000001 0.000002 3.074310 -10.423810 13.732252 -83.537004 -37.643095 -9.067465 0.000011 129.518500 -0.000014 -18.296858 10.204996 -91.396797 34.322404 46.367535 7.508904 15.845093 -44.633073 -11.113699 -19.175256 -63.330620 -55.315110 -0.000002 0.000001 0.000000 1.314589 -2.090147 70.249903 3.679218 -4.553553 77.865208 0.897687 -2.750704 36.142130 -0.000000 -0.000000 -0.000002 -4.159722 -5.150790 77.865946 3.017073 -4.359404 69.359096 0.966516 -2.842453 37.552704 0.000001 -0.000001 0.000004 -5.168970 -3.893656 71.502081 3.109647 -4.393092 70.572370 0.431515 -1.959606 24.835111 0.000000 0.000000 -0.000001 -2.754804 -2.989477 56.038239 1.253165 -3.180229 43.005361 1.565980 -3.485064 48.382212 -0.000000 0.000000 -0.000000 -12.002770 11.425721 13.243043 9.597915 4.794950 1.181870 -2.098510 1.553864 -11.832149 -0.105387 0.000001 -0.000003 0.000000 0.000001 -0.000000 -13.141039 -8.995641 -9.716992 8.604303 -3.177976 -0.055363 -1.366971 -1.093073 9.701308 2.379583 -0.000002 -0.000001 -0.000000 0.000001 -0.000000 
0.214916 96.547791 -1.281347 5.806304 -1.777107 -1.243511 5.489377 2.285619 -0.474848 2.168222 0.561352 0.289594 2.162811 0.575481 0.301405 -13.322860 -1.559286 3.610644 -11.414678 0.352809 -4.028253 0.000000 -0.000000 -0.000000 2.241418 13.909155 -6.954222 -72.243280 43.020701 0.447298 0.000001 -127.845445 0.000001 -5.118052 -21.101444 84.260233 48.436478 -55.243779 1.889137 16.609186 45.483182 -7.480846 9.384197 60.569346 22.734616 -0.000001 0.000000 -0.000000 -0.266250 3.547717 -82.078472 4.347673 5.655272 -75.086448 1.096842 3.414539 -35.607969 0.000001 0.000001 -0.000000 2.193791 7.781336 -82.792609 4.867377 5.768064 -80.304747 0.714508 2.805678 -28.569918 0.000000 0.000001 -0.000002 1.249747 7.902760 -86.093510 3.734847 5.456199 -68.762902 0.943604 3.190079 -32.948266 -0.000000 -0.000001 0.000002 2.505584 7.898894 -84.418474 1.035490 3.327347 -34.564695 2.885302 5.045979 -59.500530 0.000001 -0.000000 0.000001 3.064898 -10.254578 13.765649 -84.072956 -37.579769 -8.963423 -0.000035 129.499799 0.000027 -18.252262 10.109010 -90.860729 34.422777 46.284705 7.284714 15.845096 -44.633077 -11.113704 -19.175266 -63.330620 -55.315110 -0.000003 0.000000 -0.000001 1.246457 -2.075011 70.074838 3.679218 -4.553554 77.865215 0.897689 -2.750704 36.142130 -0.000000 0.000000 -0.000002 -4.234855 -5.109660 77.694146 3.016962 -4.359373 69.357689 0.966515 -2.842453 37.552704 -0.000000 -0.000000 -0.000003 -5.236709 -3.842750 71.332672 3.109439 -4.393003 70.569644 0.431515 -1.959605 24.835111 -0.000000 0.000000 -0.000001 -2.825610 -2.961969 55.864568 1.253165 -3.180229 43.005367 1.565981 -3.485064 48.382215 0.000001 -0.000000 -0.000001 -13.542605 11.164378 13.787463 11.683823 4.916723 1.049213 -2.950261 1.636204 -11.891229 -0.114669 -0.000002 -0.000001 -0.000000 0.000001 -0.000000 -14.643567 -8.858176 -9.837819 10.269139 -2.848656 0.270774 -1.873920 -1.116529 9.515406 2.183295 -0.000011 -0.000002 -0.000000 -0.000000 0.000000 
0.287592 95.712219 -1.649611 6.224922 -2.139673 -1.422912 5.634532 2.460461 -0.326141 2.247819 0.596732 0.312907 2.242073 0.610640 0.326299 -13.687107 -1.537200 3.664758 -11.893177 0.618095 -3.964236 0.000000 0.000000 -0.000000 2.270692 14.127146 -7.096468 -72.515586 43.198481 0.404259 0.000000 -127.903803 -0.000014 -5.171663 -21.213188 84.123444 48.436485 -55.243765 1.889160 16.609190 45.483182 -7.480855 9.384204 60.569353 22.734606 0.000000 0.000001 0.000001 -0.266263 3.547726 -82.078445 4.347674 5.655272 -75.086448 1.096842 3.414537 -35.607969 0.000000 0.000001 -0.000002 2.193796 7.781343 -82.792602 4.867359 5.768034 -80.304733 0.714510 2.805692 -28.569920 0.000000 0.000001 -0.000005 1.249745 7.902758 -86.093496 3.734852 5.456184 -68.762909 0.943609 3.190084 -32.948262 0.000001 -0.000001 0.000004 2.505585 7.898892 -84.418468 1.035503 3.327362 -34.564685 2.885316 5.045990 -59.500530 -0.000000 -0.000000 -0.000000 3.044964 -9.974172 13.791990 -84.490239 -37.487097 -8.876084 -0.000013 129.445868 0.000009 -18.192777 10.100074 -90.574681 34.578096 46.157968 6.941702 15.845100 -44.633080 -11.113705 -19.175259 -63.330620 -55.315120 0.000000 -0.000001 -0.000002 1.144474 -2.050626 69.806753 3.679218 -4.553554 77.865215 0.897688 -2.750704 36.142130 -0.000001 -0.000000 0.000001 -4.347523 -5.046299 77.431102 3.016800 -4.359305 69.355605 0.966514 -2.842453 37.552704 -0.000000 -0.000000 -0.000002 -5.338129 -3.764672 71.073302 3.109132 -4.392896 70.565526 0.431513 -1.959606 24.835109 0.000000 0.000000 -0.000001 -2.931567 -2.918613 55.598727 1.253165 -3.180229 43.005364 1.565981 -3.485065 48.382208 0.000002 0.000000 -0.000000 -15.555428 11.057293 14.651669 14.368186 4.772854 0.533475 -4.054764 1.736278 -11.750015 -0.072468 0.000006 0.000003 -0.000000 -0.000001 0.000000 -16.642717 -8.677062 -10.004129 12.543414 -2.393734 0.647000 -2.588220 -1.143951 9.296518 1.943805 -0.000002 0.000000 -0.000000 0.000001 -0.000000 
